<svg xmlns="http://www.w3.org/2000/svg" viewBox="4 6 103 95" fill="none">
  <path d="M85,65 C95,65 103,57 103,47 C103,37 95,29 85,29 C84.5,29 84,29 83.5,29.1 C80,18 70,10 58,10 C46.5,10 36.8,17.5 33,28 C32,27.9 31,27.9 30,27.9 C18,27.9 8,37.9 8,49.9 C8,61.9 18,71.9 30,71.9 L85,71.9 C85,71.9 85,65 85,65 Z"
    stroke="#2aa57c" stroke-width="6" stroke-linejoin="round"/>
  <path d="M60,30 C66,30 73,28 77.5,33 C82,37.5 83,45 83,52 C83,63 76,74 71,85 C69.5,89 70.5,94 68,96.5 C64.5,98.5 61,93 60,88.5 C59,93 55.5,98.5 52,96.5 C49.5,94 50.5,89 49,85 C44,74 37,63 37,52 C37,45 38,37.5 42.5,33 C47,28 54,30 60,30 Z"
    stroke="#1e6fd9" stroke-width="6" stroke-linejoin="round"/>
</svg>
